<svg width="16" height="16" viewBox="0 0 16 16" fill="none" xmlns="http://www.w3.org/2000/svg">
<path d="M13.9999 8C13.9999 8.13261 13.9472 8.25978 13.8535 8.35355C13.7597 8.44732 13.6325 8.5 13.4999 8.5H7.49991V12.5C7.49998 12.5989 7.4707 12.6957 7.41577 12.778C7.36083 12.8603 7.28271 12.9244 7.1913 12.9623C7.09989 13.0002 6.99929 13.0101 6.90225 12.9908C6.80521 12.9714 6.71608 12.9238 6.64615 12.8537L2.14615 8.35375C2.09967 8.30731 2.06279 8.25217 2.03763 8.19147C2.01246 8.13077 1.99951 8.0657 1.99951 8C1.99951 7.93429 2.01246 7.86923 2.03763 7.80853C2.06279 7.74783 2.09967 7.69268 2.14615 7.64625L6.64615 3.14625C6.71608 3.07624 6.80521 3.02856 6.90225 3.00923C6.99929 2.98991 7.09989 2.99981 7.1913 3.03769C7.28271 3.07556 7.36083 3.13971 7.41577 3.22201C7.4707 3.3043 7.49998 3.40105 7.49991 3.5V7.5H13.4999C13.6325 7.5 13.7597 7.55268 13.8535 7.64644C13.9472 7.74021 13.9999 7.86739 13.9999 8Z" fill="black"/>
</svg>
