<svg width="24" height="24" viewBox="0 0 24 24" fill="none" xmlns="http://www.w3.org/2000/svg">
<g clip-path="url(#clip0_53_48)">
<path d="M6.77274 19.9212V11.7214L4.25643 9.39497L2 8.10394V18.4742C2 19.2748 2.64189 19.9212 3.43186 19.9212H6.77274Z" fill="#4285F4"/>
<path d="M18.2272 19.9213H21.5681C22.3605 19.9213 23 19.2725 23 18.4742V8.10406L20.4442 9.58278L18.2272 11.7215V19.9213Z" fill="#34A853"/>
<path d="M6.77276 11.7215L6.43036 8.51756L6.77276 5.45111L12.5 9.79217L18.2273 5.45111L18.6103 8.352L18.2273 11.7215L12.5 16.0625L6.77276 11.7215Z" fill="#EA4335"/>
<path d="M18.2272 5.45108V11.7214L23 8.10393V6.17457C23 4.38514 20.9787 3.36503 19.5637 4.43819L18.2272 5.45108Z" fill="#FBBC04"/>
<path d="M2 8.10397L4.19507 9.76781L6.77274 11.7215V5.45112L5.43629 4.43823C4.01879 3.36499 2 4.38517 2 6.17452V8.10397Z" fill="#C5221F"/>
</g>
<defs>
<clipPath id="clip0_53_48">
<rect width="21" height="16" fill="white" transform="translate(2 4)"/>
</clipPath>
</defs>
</svg>
